<svg xmlns="http://www.w3.org/2000/svg" viewBox="0 0 269.23 219.56"><path d="M269.23,112.35c-3.37,6.87-9.54,11.28-14.71,16.52-16.18,16.42-32.55,32.66-48.85,49q-16.47,16.48-33,32.95A10.45,10.45,0,0,1,161,213.4a10.33,10.33,0,0,1-7.11-9.6c-.23-4.22-.12-8.46-.13-12.68,0-11.68,0-23.36,0-35.05,0-1.88-.5-2.42-2.41-2.41-24.43.06-48.87,0-73.31.06-4.9,0-8.72-1.75-10.91-6.15A13.43,13.43,0,0,1,66,141.79q-.12-32,0-64.06c0-7.41,4.58-11.88,12-11.88q36.54,0,73.09,0c2.77,0,2.78,0,2.78-2.82q0-22.58,0-45.15c0-3.83.9-7.24,4-9.78a10.67,10.67,0,0,1,14.78.54Q194,29.9,215.23,51.3l41.46,41.46c3.08,3.09,6.26,6.09,9.2,9.31a36.33,36.33,0,0,1,3.34,5.12Z"/><path d="M0,44q.68-3.12,1.36-6.24C5.75,17.71,25.49-.16,48.28,0c18.49.14,37,0,55.47,0,3.83,0,5.65,1.41,5.94,5.28a69.87,69.87,0,0,1-.14,11.75c-.34,3.59-2.21,4.81-6.35,4.82-13.4,0-26.8,0-40.2,0-5.87,0-11.75.09-17.61.43-6.6.37-11.69,3.89-16.11,8.51C24,36.31,21.92,43,21.92,50.41c0,39.63.09,79.26,0,118.89,0,14.3,9.88,24.78,20.52,27.45a38.9,38.9,0,0,0,9.16.88c16.7.08,33.4,0,50.09,0,2.29,0,4.64-.09,6.49,1.58a3.52,3.52,0,0,1,1.29,2c.18,4.41.42,8.85.17,13.25-.2,3.68-1.94,5-5.64,5-18.77,0-37.55.11-56.32-.06-15.09-.13-27.09-6.85-36.64-18.22A46.57,46.57,0,0,1,.43,177a8.32,8.32,0,0,0-.43-1.4Z"/></svg>